<?xml version="1.0" standalone="no"?><!DOCTYPE svg PUBLIC "-//W3C//DTD SVG 1.1//EN" "http://www.w3.org/Graphics/SVG/1.1/DTD/svg11.dtd"><svg t="1713427821771" class="icon" viewBox="0 0 1024 1024" version="1.1" xmlns="http://www.w3.org/2000/svg" p-id="1331" xmlns:xlink="http://www.w3.org/1999/xlink" width="200" height="200"><path d="M541.1 834.4c7 69 64.5 123.1 134.6 123.1h149.6c74.5 0 135.1-61.5 135.1-137.6V670.8c0-75-59-136.1-132.6-137.1H540.7l0.4 300.7z m0-646.3c7-69 64.5-123.1 134.6-123.1h149.6c74.5 0 135.1 61.5 135.1 137.6v149.1c0 75-59 136.1-132.6 137.1H540.7l0.4-300.7z m-53.5 646.3c-7 69-64.5 123.1-134.1 123.1h-150C129 957.5 68.4 896 68.4 819.9V670.8c0-75 59-136.1 132.6-137.1h287.1l-0.5 300.7z m0-646.3c-7-69-64.5-123.1-134.1-123.1h-150C129 65 68.4 126.6 68.4 202.6v149.1c0 75 59 136.1 132.6 137.1h287.1l-0.5-300.7z m0 0" fill="#AAACBD" p-id="1332"></path></svg>